<svg style="position: absolute; width: 0; height: 0; display: none;" 
	xmlns="http://www.w3.org/2000/svg" width="0" height="0" display="none">
	<defs>

		<symbol id="work" viewBox="0 0 32 32">
			<path fill-rule="evenodd" clip-rule="evenodd" d="M32 0V32H0V0H32ZM10.8 9.2C8.374 9.2 6.4 11.3792 6.4 14.0576V21.9264L6.402 21.9888C6.4308 22.4424 6.77321 22.8 7.19121 22.8C7.62801 22.8 7.9824 22.4088 7.9824 21.9264V18.4944H13.6176V21.9264L13.6196 21.9888C13.6488 22.4424 13.9908 22.8 14.4088 22.8C14.846 22.8 15.2 22.4088 15.2 21.9264V14.0576L15.1988 13.9344C15.1388 11.3128 13.1888 9.2 10.8 9.2ZM21.6 9.2C19.174 9.2 17.2 11.2104 17.2 13.6812V21.9264L17.202 21.9888C17.2336 22.4424 17.6044 22.8 18.0576 22.8C18.5312 22.8 18.9152 22.4088 18.9152 21.9264V18.1624H21.6L21.7152 18.1608C24.0884 18.0984 26 16.1128 26 13.6808C26 11.2104 24.026 9.2 21.6 9.2ZM10.8 10.9468C12.3536 10.9468 13.6176 12.3428 13.6176 14.0576V16.748H7.9824V14.0576L7.98359 13.9552C8.03279 12.2872 9.2776 10.9472 10.8 10.9472V10.9468ZM21.6 10.9468C23.08 10.9468 24.2848 12.1736 24.2848 13.6812C24.2848 15.1888 23.0804 16.4152 21.6 16.4152H18.9152V13.6812L18.9168 13.5852C18.9668 12.1216 20.1512 10.9468 21.6 10.9468Z" fill="#87CD9B"/>
		</symbol>
    </defs>

</svg>